# This file uses centimeters as units for non-parametric coordinates.

mtllib Cloud.mtl
g default
v 0.856926 7.224896 -1.780935
v 0.002728 7.481155 -1.308950
v 0.005937 7.472128 1.372243
v 0.472694 7.205300 1.584530
v 0.595258 8.120129 -1.372243
v -0.495050 8.030589 -1.126036
v 0.595258 8.120129 1.372243
v -0.801111 7.968591 -0.019150
v -0.495051 8.030589 1.126036
v 0.930109 8.385596 -0.792265
v -0.445995 8.396747 -0.975176
v -0.763096 8.396747 -0.000000
v -0.445995 8.396747 0.975175
v 0.930108 8.396642 0.792265
v -0.311972 8.664793 -0.563018
v -0.495050 8.664793 -0.000000
v -0.311972 8.664793 0.563018
v 0.790040 8.640049 -0.000000
v 0.011353 8.764339 0.000000
v -1.948467 6.100630 -0.548324
v -2.386814 6.100630 -0.548324
v -2.605987 6.100630 -0.000000
v -2.386814 6.100630 0.548324
v -1.948467 6.100630 0.548324
v -1.536852 5.879352 -0.000000
v -1.426085 6.306135 -1.372243
v -2.547260 6.421522 -0.949725
v -2.926879 6.421522 -0.000000
v -2.547260 6.421522 0.949725
v -1.426085 6.306135 1.372243
v -1.536852 6.889132 -1.584530
v -2.605987 6.859869 -1.096648
v -3.044334 6.859869 -0.000000
v -2.605988 6.859869 1.096648
v -1.536852 6.889132 1.584530
v -1.426085 7.472128 -1.372243
v -2.547260 7.298215 -0.949725
v -2.926879 7.298215 -0.000000
v -2.547260 7.298215 0.949725
v -1.426085 7.472128 1.372243
v -1.536852 7.693473 -0.000000
v -2.386814 7.619107 -0.548324
v -2.605987 7.619107 -0.000000
v -2.386814 7.619107 0.548324
v -0.296685 5.879352 -0.792265
v -1.123463 5.879352 -0.792265
v -1.123463 5.879352 0.792265
v -0.296685 5.879352 0.792265
v 0.116704 5.725924 0.000000
v 0.595258 6.290472 -1.372243
v 0.595258 6.290472 1.372243
v -0.710074 5.723138 0.000000
v 3.873338 5.586872 -0.792265
v 3.079836 5.518219 -0.792265
v 2.683085 5.518219 -0.000000
v 3.079836 5.518219 0.792265
v 3.873338 5.518219 0.792265
v 4.270088 5.518219 0.000000
v 4.163780 5.980486 -1.372243
v 2.549038 5.999199 -1.372243
v 2.102202 5.691260 -0.000000
v 2.179787 6.290472 1.372243
v 4.163779 5.980486 1.372243
v 4.850972 5.980486 0.000000
v 4.270089 6.611955 -1.584529
v 4.270088 6.611955 1.584530
v 5.063590 6.611955 0.000000
v 4.163780 7.243423 -1.372243
v 2.346129 7.242452 -1.162295
v 2.302351 7.205300 1.584530
v 4.163779 7.243423 1.372243
v 4.850972 7.243423 0.000000
v 3.873338 7.705690 -0.792265
v 2.215403 8.155202 -1.003021
v 2.972052 8.120129 0.000000
v 2.179787 8.120129 1.372243
v 3.873338 7.705690 0.792265
v 4.270088 7.705690 0.000000
v 3.476587 5.417670 0.000000
v 3.476587 7.874891 0.000000
v 1.844937 5.763716 -0.792265
v 0.930109 5.763716 -0.792265
v 0.472694 5.620770 -0.000000
v 0.930108 5.763716 0.792265
v 1.844937 5.763716 0.792265
v 1.844937 8.789829 -0.792265
v 1.844937 8.789829 0.792265
v 2.302351 8.789829 0.000000
v 1.387523 5.605481 0.000000
v 1.387523 9.034957 0.000000
v -0.337756 7.057323 -1.379507
v -0.325761 6.297608 -1.372243
v -0.558387 7.477610 -1.333806
vt 0.181035 0.855152
vt 0.181035 0.750376
vt 0.215106 0.750376
vt 0.215106 0.841114
vt 0.181035 0.645599
vt 0.215106 0.659637
vt 0.240047 0.750376
vt 0.240047 0.802764
vt 0.240047 0.697988
vt 0.063466 0.836011
vt 0.063466 0.747641
vt 0.104254 0.747641
vt 0.104254 0.849683
vt 0.033608 0.798662
vt 0.033608 0.747641
vt 0.063466 0.659270
vt 0.104254 0.645599
vt 0.145041 0.747641
vt 0.145041 0.836011
vt 0.033608 0.696620
vt 0.145041 0.659270
vt 0.174900 0.747641
vt 0.174900 0.798662
vt 0.174900 0.696620
vt 0.837480 0.724303
vt 0.837480 0.596618
vt 0.896237 0.596618
vt 0.896237 0.744056
vt 0.794467 0.670337
vt 0.794467 0.596618
vt 0.837480 0.468933
vt 0.896237 0.449180
vt 0.954995 0.596618
vt 0.954995 0.724303
vt 0.794467 0.522899
vt 0.954995 0.468933
vt 0.998008 0.596618
vt 0.998008 0.670337
vt 0.998008 0.522899
vt 0.268991 0.847004
vt 0.302462 0.773285
vt 0.331306 0.900970
vt 0.246182 0.773285
vt 0.268991 0.699566
vt 0.331306 0.645599
vt 0.899631 0.312579
vt 0.916651 0.440623
vt 0.878300 0.428153
vt 0.953597 0.343736
vt 0.930688 0.445188
vt 0.825912 0.411118
vt 0.953597 0.196298
vt 0.899631 0.227455
vt 0.825912 0.445188
vt 0.825912 0.355141
vt 0.825912 0.270017
vt 0.825912 0.122579
vt 0.825912 0.184894
vt 0.773524 0.428153
vt 0.752193 0.312579
vt 0.825912 0.075633
vt 0.698226 0.196298
vt 0.752193 0.227455
vt 0.899631 0.038715
vt 0.698226 0.343736
vt 0.735173 0.440623
vt 0.752193 0.038715
vt 0.953597 0.011690
vt 0.973350 0.184894
vt 0.825912 0.001798
vt 0.721136 0.445188
vt 0.678473 0.184894
vt 0.698226 0.011690
vt 0.492029 0.385927
vt 0.492029 0.426715
vt 0.454680 0.441644
vt 0.415365 0.337320
vt 0.543050 0.347627
vt 0.543050 0.447108
vt 0.469331 0.309161
vt 0.594071 0.426715
vt 0.543050 0.270696
vt 0.469331 0.232231
vt 0.415365 0.149237
vt 0.594071 0.385927
vt 0.616769 0.309161
vt 0.543050 0.193766
vt 0.670736 0.337320
vt 0.631421 0.441644
vt 0.616769 0.232231
vt 0.469331 0.118079
vt 0.543050 0.160641
vt 0.670736 0.149237
vt 0.543050 0.075518
vt 0.616769 0.118079
vt 0.469331 0.032956
vt 0.415365 0.001798
vt 0.616769 0.032956
vt 0.670736 0.001798
vt 0.655084 0.706471
vt 0.550760 0.667156
vt 0.565689 0.629806
vt 0.644777 0.578785
vt 0.545295 0.578785
vt 0.741715 0.683561
vt 0.565689 0.527764
vt 0.707645 0.578785
vt 0.655084 0.451100
vt 0.550760 0.490415
vt 0.788331 0.451100
vt 0.741715 0.474009
vt 0.428409 0.699566
vt 0.502243 0.699566
vt 0.465326 0.773285
vt 0.344661 0.645599
vt 0.529268 0.645599
vt 0.539160 0.773285
vt 0.391492 0.773285
vt 0.337441 0.773285
vt 0.502243 0.847004
vt 0.428409 0.847004
vt 0.344660 0.900970
vt 0.529268 0.900970
vt 0.087116 0.355141
vt 0.062288 0.398572
vt 0.010324 0.445188
vt 0.001992 0.343736
vt 0.116535 0.542126
vt 0.062288 0.531820
vt 0.087116 0.184894
vt 0.001992 0.196298
vt 0.172239 0.343736
vt 0.170782 0.531820
vt 0.119258 0.641608
vt 0.078470 0.636143
vt 0.172239 0.196298
vt 0.160045 0.636143
vt 0.142326 0.001798
vt 0.083568 0.011690
vt 0.201083 0.011690
vt 0.347571 0.398572
vt 0.322743 0.355141
vt 0.407867 0.343736
vt 0.293324 0.542126
vt 0.347571 0.531820
vt 0.322743 0.184894
vt 0.407867 0.196298
vt 0.399535 0.445188
vt 0.239077 0.531820
vt 0.237620 0.343736
vt 0.290601 0.641608
vt 0.331389 0.636143
vt 0.237620 0.196298
vt 0.249814 0.636143
vt 0.267533 0.001798
vt 0.326290 0.011690
vt 0.208776 0.011690
vt 0.101798 0.448461
vt 0.171575 0.429436
vt 0.415365 0.234936
vt 0.062288 0.450900
vn -0.323119 0.208189 -0.923175
vn -0.323119 0.208189 -0.923175
vn -0.323119 0.208189 -0.923175
vn -0.323119 0.208189 -0.923175
vn -0.277405 0.252285 0.927038
vn -0.277405 0.252285 0.927038
vn -0.277405 0.252285 0.927038
vn -0.231757 0.210771 0.949665
vn -0.231757 0.210771 0.949665
vn -0.231757 0.210771 0.949665
vn -0.040810 0.766471 -0.640982
vn -0.040810 0.766471 -0.640982
vn -0.040810 0.766470 -0.640982
vn -0.040810 0.766471 -0.640982
vn -0.946470 0.163339 -0.278415
vn -0.946470 0.163339 -0.278415
vn -0.946470 0.163339 -0.278415
vn -0.946470 0.163339 -0.278415
vn -0.949792 0.149673 0.274762
vn -0.949792 0.149673 0.274762
vn -0.949792 0.149673 0.274762
vn -0.949792 0.149673 0.274762
vn -0.044209 0.761619 0.646515
vn -0.044209 0.761619 0.646515
vn -0.044209 0.761619 0.646515
vn -0.044209 0.761619 0.646515
vn 0.081350 0.823236 -0.561841
vn 0.081350 0.823236 -0.561841
vn 0.081350 0.823236 -0.561841
vn -0.689125 0.689124 -0.224085
vn -0.689125 0.689124 -0.224085
vn -0.689125 0.689124 -0.224085
vn -0.689125 0.689124 -0.224085
vn -0.689125 0.689124 0.224085
vn -0.689125 0.689124 0.224085
vn -0.689125 0.689124 0.224085
vn -0.689125 0.689124 0.224085
vn 0.074578 0.824717 0.560607
vn 0.074578 0.824717 0.560607
vn 0.074578 0.824717 0.560607
vn 0.165148 0.950580 -0.262913
vn 0.165148 0.950580 -0.262913
vn 0.165148 0.950580 -0.262913
vn -0.192506 0.979297 -0.062597
vn -0.192506 0.979297 -0.062597
vn -0.192506 0.979297 -0.062597
vn -0.192506 0.979297 0.062597
vn -0.192506 0.979297 0.062597
vn -0.192506 0.979297 0.062597
vn 0.157881 0.952849 0.259136
vn 0.157881 0.952850 0.259136
vn 0.157881 0.952850 0.259136
vn 0.151958 0.952025 0.265627
vn 0.151958 0.952025 0.265627
vn 0.151958 0.952025 0.265627
vn 0.151412 0.948604 -0.277895
vn 0.151412 0.948604 -0.277895
vn 0.151412 0.948604 -0.277895
vn -0.182652 -0.882630 -0.433130
vn -0.182652 -0.882631 -0.433130
vn -0.182652 -0.882630 -0.433130
vn -0.182652 -0.882630 -0.433130
vn -0.680450 -0.680450 -0.271986
vn -0.680450 -0.680450 -0.271986
vn -0.680450 -0.680450 -0.271986
vn -0.680450 -0.680450 -0.271986
vn -0.680450 -0.680449 0.271986
vn -0.680450 -0.680449 0.271986
vn -0.680450 -0.680449 0.271986
vn -0.680450 -0.680449 0.271986
vn -0.182652 -0.882631 0.433130
vn -0.182652 -0.882631 0.433130
vn -0.182652 -0.882631 0.433130
vn -0.182652 -0.882631 0.433130
vn -0.105423 -0.947118 0.303074
vn -0.105423 -0.947118 0.303074
vn -0.105423 -0.947118 0.303074
vn -0.105423 -0.947118 -0.303074
vn -0.105423 -0.947118 -0.303074
vn -0.105423 -0.947118 -0.303074
vn -0.369853 -0.362277 -0.855549
vn -0.369853 -0.362277 -0.855549
vn -0.369853 -0.362277 -0.855549
vn -0.369853 -0.362277 -0.855549
vn -0.901095 -0.241447 -0.360182
vn -0.901095 -0.241447 -0.360182
vn -0.901095 -0.241447 -0.360182
vn -0.901095 -0.241447 -0.360182
vn -0.901095 -0.241449 0.360181
vn -0.901095 -0.241449 0.360181
vn -0.901095 -0.241449 0.360181
vn -0.901095 -0.241449 0.360181
vn -0.369853 -0.362277 0.855549
vn -0.369853 -0.362277 0.855549
vn -0.369853 -0.362277 0.855549
vn -0.369853 -0.362277 0.855549
vn -0.386189 0.362418 -0.848240
vn -0.386189 0.362418 -0.848240
vn -0.386189 0.362418 -0.848240
vn -0.386189 0.362418 -0.848240
vn -0.901095 0.241447 -0.360182
vn -0.901095 0.241447 -0.360182
vn -0.901095 0.241447 -0.360182
vn -0.901095 0.241447 -0.360182
vn -0.901095 0.241449 0.360181
vn -0.901095 0.241449 0.360181
vn -0.901095 0.241449 0.360181
vn -0.901095 0.241449 0.360181
vn -0.386189 0.362418 0.848240
vn -0.386189 0.362418 0.848240
vn -0.386189 0.362418 0.848240
vn -0.386189 0.362418 0.848240
vn -0.101534 0.952157 -0.288248
vn -0.101534 0.952157 -0.288248
vn -0.101534 0.952157 -0.288248
vn -0.101534 0.952157 -0.288248
vn -0.680450 0.680450 -0.271986
vn -0.680450 0.680450 -0.271986
vn -0.680450 0.680450 -0.271986
vn -0.680450 0.680450 -0.271986
vn -0.680450 0.680449 0.271987
vn -0.680450 0.680449 0.271987
vn -0.680450 0.680449 0.271987
vn -0.680450 0.680449 0.271987
vn -0.316747 0.798580 0.511802
vn -0.316747 0.798580 0.511802
vn -0.316747 0.798580 0.511802
vn 0.000000 -0.927336 -0.374229
vn 0.000000 -0.927336 -0.374229
vn 0.000000 -0.927336 -0.374229
vn -0.202012 -0.976049 -0.080749
vn -0.202012 -0.976049 -0.080749
vn -0.202012 -0.976049 -0.080749
vn -0.202012 -0.976049 0.080749
vn -0.202012 -0.976049 0.080749
vn -0.202012 -0.976049 0.080749
vn -0.000000 -0.927336 0.374231
vn -0.000000 -0.927336 0.374231
vn -0.000000 -0.927336 0.374231
vn -0.069362 0.997206 -0.027726
vn -0.069362 0.997206 -0.027726
vn -0.069362 0.997206 -0.027726
vn -0.069362 0.997206 0.027724
vn -0.069362 0.997206 0.027724
vn -0.069362 0.997206 0.027724
vn 0.015545 0.987317 0.158000
vn 0.015545 0.987317 0.158000
vn 0.015545 0.987317 0.158000
vn -0.004452 -0.809544 -0.587042
vn -0.004452 -0.809544 -0.587042
vn -0.004452 -0.809544 -0.587042
vn -0.004452 -0.809544 -0.587042
vn -0.004452 -0.809544 -0.587042
vn -0.551871 -0.782637 -0.287956
vn -0.551871 -0.782637 -0.287956
vn -0.551871 -0.782637 -0.287956
vn -0.551871 -0.782637 0.287956
vn -0.551871 -0.782637 0.287956
vn -0.551871 -0.782637 0.287956
vn -0.004452 -0.809544 0.587043
vn -0.004452 -0.809544 0.587043
vn -0.004452 -0.809544 0.587043
vn -0.004452 -0.809544 0.587043
vn 0.231483 -0.925428 0.299999
vn 0.231482 -0.925428 0.299998
vn 0.231483 -0.925428 0.299999
vn 0.231482 -0.925428 -0.299999
vn 0.231482 -0.925428 -0.299999
vn 0.231482 -0.925428 -0.299998
vn -0.054819 -0.188128 -0.980613
vn -0.046703 -0.186313 -0.981380
vn 0.098236 -0.151835 -0.983512
vn 0.098236 -0.151835 -0.983512
vn 0.020111 -0.269759 0.962718
vn 0.020111 -0.269759 0.962718
vn 0.020111 -0.269759 0.962718
vn 0.020111 -0.269759 0.962718
vn -0.228702 0.335839 -0.913733
vn -0.074495 0.302050 -0.950377
vn 0.004778 0.281802 -0.959461
vn -0.228702 0.335839 -0.913733
vn -0.039795 0.433183 0.900427
vn -0.039795 0.433183 0.900427
vn -0.039795 0.433183 0.900427
vn -0.039795 0.433183 0.900427
vn 0.039305 0.347501 -0.936855
vn 0.039305 0.347501 -0.936855
vn 0.039305 0.347501 -0.936855
vn 0.039305 0.347501 -0.936855
vn -0.471306 0.863944 -0.177400
vn -0.471306 0.863944 -0.177400
vn -0.471306 0.863944 -0.177400
vn -0.340718 0.923458 0.176457
vn -0.340718 0.923458 0.176457
vn -0.340718 0.923458 0.176457
vn -0.350276 0.799260 0.488354
vn -0.350276 0.799260 0.488354
vn -0.350276 0.799260 0.488354
vn -0.350276 0.799260 0.488354
vn 0.000000 -0.981110 -0.193449
vn 0.000000 -0.981110 -0.193449
vn 0.000000 -0.981111 -0.193449
vn -0.184793 -0.978036 -0.096422
vn -0.184793 -0.978036 -0.096422
vn -0.184793 -0.978036 -0.096422
vn -0.184793 -0.978036 0.096421
vn -0.184793 -0.978036 0.096421
vn -0.184793 -0.978036 0.096421
vn -0.000000 -0.981110 0.193449
vn -0.000000 -0.981110 0.193449
vn -0.000000 -0.981110 0.193449
vn 0.003307 -0.981431 0.191786
vn 0.003307 -0.981431 0.191786
vn 0.003307 -0.981431 0.191786
vn 0.003307 -0.981431 -0.191786
vn 0.003307 -0.981431 -0.191786
vn 0.003307 -0.981431 -0.191786
vn -0.350917 0.935342 -0.044640
vn -0.350917 0.935342 -0.044640
vn -0.350917 0.935342 -0.044640
vn 0.016521 -0.796711 -0.604135
vn 0.016521 -0.796711 -0.604135
vn 0.016521 -0.796711 -0.604135
vn 0.016521 -0.796711 -0.604135
vn -0.377933 -0.884623 -0.273147
vn -0.377934 -0.884623 -0.273147
vn -0.377933 -0.884623 -0.273147
vn -0.377933 -0.884623 -0.273147
vn -0.414605 -0.849584 0.326052
vn -0.414605 -0.849584 0.326052
vn -0.414605 -0.849584 0.326052
vn -0.414605 -0.849584 0.326052
vn -0.078453 -0.702947 0.706902
vn -0.078453 -0.702947 0.706902
vn -0.078453 -0.702947 0.706902
vn -0.078453 -0.702947 0.706902
vn 0.594457 -0.746994 0.297693
vn 0.594457 -0.746994 0.297693
vn 0.594457 -0.746994 0.297693
vn 0.594457 -0.746994 0.297693
vn 0.557180 -0.772925 -0.303540
vn 0.557180 -0.772925 -0.303540
vn 0.557180 -0.772925 -0.303540
vn 0.557180 -0.772925 -0.303540
vn -0.003686 -0.318095 -0.948052
vn -0.003686 -0.318095 -0.948052
vn -0.003686 -0.318095 -0.948052
vn -0.048579 -0.310921 0.949193
vn -0.048579 -0.310921 0.949193
vn -0.048579 -0.310921 0.949193
vn 0.856188 -0.288281 0.428762
vn 0.856188 -0.288281 0.428762
vn 0.856188 -0.288281 0.428762
vn 0.856188 -0.288281 0.428762
vn 0.856188 -0.288282 -0.428762
vn 0.856188 -0.288282 -0.428762
vn 0.856188 -0.288282 -0.428762
vn 0.856188 -0.288282 -0.428762
vn -0.149299 0.193758 -0.969623
vn -0.149299 0.193758 -0.969623
vn -0.149299 0.193758 -0.969623
vn -0.149299 0.193758 -0.969623
vn 0.000000 0.000000 1.000000
vn 0.000000 0.000000 1.000000
vn 0.000000 0.000000 1.000000
vn 0.000000 0.000000 1.000000
vn 0.856188 0.288281 0.428762
vn 0.856188 0.288281 0.428762
vn 0.856188 0.288281 0.428762
vn 0.856188 0.288281 0.428762
vn 0.856188 0.288282 -0.428761
vn 0.856188 0.288282 -0.428762
vn 0.856188 0.288282 -0.428762
vn 0.856188 0.288282 -0.428761
vn 0.063119 0.487518 -0.870829
vn 0.063119 0.487518 -0.870829
vn 0.063119 0.487518 -0.870829
vn 0.063119 0.487518 -0.870829
vn 0.237260 0.536922 0.809582
vn 0.237260 0.536922 0.809582
vn 0.237260 0.536922 0.809582
vn 0.237260 0.536922 0.809582
vn 0.594457 0.746994 0.297693
vn 0.594457 0.746994 0.297693
vn 0.594457 0.746994 0.297693
vn 0.594457 0.746994 0.297693
vn 0.594457 0.746994 -0.297692
vn 0.594457 0.746994 -0.297692
vn 0.594457 0.746994 -0.297692
vn 0.594457 0.746994 -0.297692
vn 0.084982 -0.982251 -0.167218
vn 0.084982 -0.982251 -0.167218
vn 0.084982 -0.982251 -0.167218
vn -0.125462 -0.990107 -0.062829
vn -0.125462 -0.990107 -0.062829
vn -0.125462 -0.990107 -0.062829
vn -0.125462 -0.990107 0.062828
vn -0.125462 -0.990107 0.062829
vn -0.125462 -0.990107 0.062829
vn 0.000000 -0.992043 0.125903
vn 0.000000 -0.992043 0.125903
vn 0.000000 -0.992043 0.125903
vn 0.125462 -0.990107 0.062829
vn 0.125462 -0.990107 0.062829
vn 0.125462 -0.990107 0.062829
vn 0.124339 -0.981246 -0.147295
vn 0.124339 -0.981246 -0.147295
vn 0.124339 -0.981246 -0.147295
vn 0.269342 0.960479 -0.070246
vn 0.269342 0.960479 -0.070246
vn 0.269342 0.960479 -0.070246
vn 0.418916 0.861849 -0.285876
vn 0.418916 0.861849 -0.285876
vn 0.418916 0.861849 -0.285876
vn 0.423868 0.872037 0.244721
vn 0.423868 0.872037 0.244721
vn 0.423868 0.872037 0.244721
vn 0.261123 0.962405 0.074772
vn 0.261123 0.962405 0.074772
vn 0.261123 0.962405 0.074772
vn 0.207417 0.972723 0.103870
vn 0.207417 0.972723 0.103870
vn 0.207417 0.972723 0.103870
vn 0.207417 0.972722 -0.103871
vn 0.207417 0.972722 -0.103871
vn 0.207417 0.972722 -0.103871
vn -0.083305 -0.820430 -0.565646
vn -0.083305 -0.820430 -0.565646
vn -0.083305 -0.820430 -0.565646
vn -0.083305 -0.820430 -0.565646
vn -0.383354 -0.816072 -0.432511
vn -0.383354 -0.816072 -0.432511
vn -0.383354 -0.816072 -0.432511
vn -0.383354 -0.816072 -0.432511
vn -0.383354 -0.816072 0.432511
vn -0.383354 -0.816072 0.432511
vn -0.383355 -0.816072 0.432511
vn -0.383354 -0.816072 0.432511
vn -0.000000 -0.740256 0.672326
vn -0.000000 -0.740256 0.672326
vn -0.000000 -0.740256 0.672326
vn -0.000000 -0.740256 0.672326
vn 0.645364 -0.712754 0.274747
vn 0.645364 -0.712754 0.274747
vn 0.645364 -0.712754 0.274747
vn 0.197937 -0.968228 -0.152823
vn 0.197937 -0.968228 -0.152823
vn 0.197937 -0.968228 -0.152823
vn 0.168813 -0.094099 -0.981146
vn 0.168813 -0.094099 -0.981146
vn 0.168813 -0.094099 -0.981146
vn 0.168813 -0.094099 -0.981146
vn -0.000000 -0.226045 0.974117
vn -0.000000 -0.226045 0.974117
vn -0.000000 -0.226045 0.974117
vn -0.000000 -0.226045 0.974117
vn 0.279219 0.342418 -0.897099
vn 0.279219 0.342418 -0.897099
vn 0.279219 0.342418 -0.897099
vn 0.279219 0.342418 -0.897099
vn -0.000000 0.226044 0.974117
vn -0.000000 0.226044 0.974117
vn -0.000000 0.226045 0.974117
vn -0.000000 0.226045 0.974117
vn -0.004919 0.659875 -0.751360
vn -0.004919 0.659875 -0.751360
vn -0.004919 0.659875 -0.751360
vn -0.004919 0.659875 -0.751360
vn -0.121006 0.769193 0.627455
vn -0.121006 0.769193 0.627455
vn -0.121006 0.769193 0.627455
vn -0.121006 0.769193 0.627455
vn 0.654654 0.654654 0.377964
vn 0.654654 0.654654 0.377964
vn 0.654654 0.654654 0.377964
vn 0.654654 0.654654 0.377964
vn 0.666554 0.602492 -0.438987
vn 0.666554 0.602491 -0.438987
vn 0.666554 0.602491 -0.438987
vn 0.666554 0.602492 -0.438987
vn 0.000000 -0.980633 -0.195857
vn 0.000000 -0.980633 -0.195857
vn 0.000000 -0.980633 -0.195857
vn -0.016417 -0.982279 -0.186707
vn -0.016417 -0.982279 -0.186707
vn -0.016417 -0.982279 -0.186707
vn -0.016417 -0.982279 0.186706
vn -0.016417 -0.982279 0.186706
vn -0.016417 -0.982279 0.186706
vn -0.000000 -0.980633 0.195857
vn -0.000000 -0.980633 0.195857
vn -0.000000 -0.980633 0.195857
vn 0.118183 -0.984652 0.128427
vn 0.118183 -0.984652 0.128427
vn 0.118183 -0.984652 0.128427
vn 0.118183 -0.984652 -0.128427
vn 0.118183 -0.984652 -0.128427
vn 0.118183 -0.984652 -0.128427
vn -0.359120 0.812734 -0.458799
vn -0.359120 0.812734 -0.458799
vn -0.359120 0.812734 -0.458799
vn -0.517901 0.783567 -0.343221
vn -0.517901 0.783567 -0.343221
vn -0.517901 0.783567 -0.343221
vn -0.519823 0.786474 0.333530
vn -0.519823 0.786474 0.333530
vn -0.519823 0.786474 0.333530
vn -0.351444 0.817703 0.455905
vn -0.351444 0.817703 0.455905
vn -0.351444 0.817703 0.455905
vn 0.255977 0.955319 0.147789
vn 0.255977 0.955319 0.147789
vn 0.255977 0.955319 0.147789
vn 0.255977 0.955319 -0.147787
vn 0.255977 0.955319 -0.147787
vn 0.255977 0.955319 -0.147787
vn -0.166647 -0.211878 -0.962983
vn -0.166647 -0.211878 -0.962983
vn 0.091684 0.257398 -0.961946
vn 0.091684 0.257398 -0.961946
s off
g pSphere6
usemtl lambert3SG
f 1/124/1 2/125/2 6/126/3 5/127/4
f 3/141/5 4/142/6 7/143/7
f 3/141/8 7/143/9 9/148/10
f 5/49/11 6/50/12 11/47/13 10/46/14
f 6/1/15 8/2/16 12/3/17 11/4/18
f 8/2/19 9/5/20 13/6/21 12/3/22
f 9/71/23 7/65/24 14/60/25 13/66/26
f 10/46/27 11/47/28 15/48/29
f 11/4/30 12/3/31 16/7/32 15/8/33
f 12/3/34 13/6/35 17/9/36 16/7/37
f 13/66/38 14/60/39 17/59/40
f 10/46/41 15/48/42 19/51/43
f 15/48/44 16/54/45 19/51/46
f 16/54/47 17/59/48 19/51/49
f 17/59/50 14/60/51 19/51/52
f 14/60/53 18/55/54 19/51/55
f 18/55/56 10/46/57 19/51/58
f 20/74/59 21/75/60 27/76/61 26/77/62
f 21/14/63 22/15/64 28/11/65 27/10/66
f 22/15/67 23/20/68 29/16/69 28/11/70
f 23/81/71 24/85/72 30/88/73 29/89/74
f 24/85/75 25/78/76 30/88/77
f 25/78/78 20/74/79 26/77/80
f 26/133/81 27/137/82 32/134/83 31/128/84
f 27/10/85 28/11/86 33/12/87 32/13/88
f 28/11/89 29/16/90 34/17/91 33/12/92
f 29/154/93 30/149/94 35/144/95 34/151/96
f 31/128/97 32/134/98 37/135/99 36/129/100
f 32/13/101 33/12/102 38/18/103 37/19/104
f 33/12/105 34/17/106 39/21/107 38/18/108
f 34/151/109 35/144/110 40/145/111 39/152/112
f 36/100/113 37/101/114 42/102/115 41/103/116
f 37/19/117 38/18/118 43/22/119 42/23/120
f 38/18/121 39/21/122 44/24/123 43/22/124
f 39/109/125 40/108/126 44/106/127
f 21/75/128 20/74/129 25/78/130
f 22/79/131 21/75/132 25/78/133
f 23/81/134 22/79/135 25/78/136
f 24/85/137 23/81/138 25/78/139
f 42/102/140 43/104/141 41/103/142
f 43/104/143 44/106/144 41/103/145
f 44/106/146 40/108/147 41/103/148
f 45/83/149 46/80/150 26/77/151 92/160/152 50/84/153
f 46/80/154 25/78/155 26/77/156
f 25/78/157 47/86/158 30/88/159
f 47/86/160 48/90/161 51/93/162 30/88/163
f 48/90/164 49/87/165 51/93/166
f 49/87/167 45/83/168 50/84/169
s 1
f 91/158/170 92/159/171 26/133/172 31/128/173
s off
f 30/149/174 51/150/175 4/142/176 35/144/177
s 2
f 1/124/178 91/158/179 93/161/180 2/125/181
s off
f 35/144/182 4/142/183 3/141/184 40/145/185
f 2/125/186 93/161/187 36/129/188 6/126/189
f 36/100/190 41/103/191 6/105/192
f 41/103/193 40/108/194 8/107/195
f 40/108/196 3/110/197 9/111/198 8/107/199
f 46/80/200 45/83/201 52/82/202
f 25/78/203 46/80/204 52/82/205
f 47/86/206 25/78/207 52/82/208
f 48/90/209 47/86/210 52/82/211
f 49/87/212 48/90/213 52/82/214
f 45/83/215 49/87/216 52/82/217
f 6/105/218 41/103/219 8/107/220
f 53/113/221 54/112/222 60/115/223 59/116/224
f 54/112/225 55/118/226 61/119/227 60/115/228
f 55/118/229 56/121/230 62/122/231 61/119/232
f 56/121/233 57/120/234 63/123/235 62/122/236
f 57/29/237 58/30/238 64/26/239 63/25/240
f 58/30/241 53/35/242 59/31/243 64/26/244
f 59/140/245 60/136/246 65/138/247
f 62/153/248 63/157/249 66/155/250
f 63/25/251 64/26/252 67/27/253 66/28/254
f 64/26/255 59/31/256 65/32/257 67/27/258
f 65/138/259 60/136/260 69/130/261 68/139/262
f 62/153/263 66/155/264 71/156/265 70/146/266
f 66/28/267 67/27/268 72/33/269 71/34/270
f 67/27/271 65/32/272 68/36/273 72/33/274
f 68/68/275 69/69/276 74/52/277 73/64/278
f 70/72/279 71/73/280 77/67/281 76/62/282
f 71/34/283 72/33/284 78/37/285 77/38/286
f 72/33/287 68/36/288 73/39/289 78/37/290
f 54/112/291 53/113/292 79/114/293
f 55/118/294 54/112/295 79/114/296
f 56/121/297 55/118/298 79/114/299
f 57/120/300 56/121/301 79/114/302
f 58/117/303 57/120/304 79/114/305
f 53/113/306 58/117/307 79/114/308
f 73/64/309 74/52/310 80/61/311
f 74/52/312 75/57/313 80/61/314
f 75/57/315 76/62/316 80/61/317
f 76/62/318 77/67/319 80/61/320
f 77/67/321 78/70/322 80/61/323
f 78/70/324 73/64/325 80/61/326
f 81/96/327 82/91/328 50/84/329 60/97/330
f 82/91/331 83/92/332 49/87/333 50/84/334
f 83/92/335 84/95/336 51/93/337 49/87/338
f 84/95/339 85/98/340 62/99/341 51/93/342
f 85/40/343 61/41/344 62/42/345
f 61/41/346 81/44/347 60/45/348
f 60/136/349 50/132/350 1/124/351 69/130/352
f 51/150/353 62/153/354 70/146/355 4/142/356
f 69/130/357 1/124/358 5/127/359 74/131/360
f 4/142/361 70/146/362 76/147/363 7/143/364
f 74/52/365 5/49/366 10/46/367 86/53/368
f 7/65/369 76/62/370 87/63/371 14/60/372
f 76/62/373 75/57/374 88/58/375 87/63/376
f 75/57/377 74/52/378 86/53/379 88/58/380
f 82/91/381 81/96/382 89/94/383
f 83/92/384 82/91/385 89/94/386
f 84/95/387 83/92/388 89/94/389
f 85/98/390 84/95/391 89/94/392
f 61/41/393 85/40/394 89/43/395
f 81/44/396 61/41/397 89/43/398
f 86/53/399 10/46/400 90/56/401
f 10/46/402 18/55/403 90/56/404
f 18/55/405 14/60/406 90/56/407
f 14/60/408 87/63/409 90/56/410
f 87/63/411 88/58/412 90/56/413
f 88/58/414 86/53/415 90/56/416
s 1
f 50/132/417 92/159/171 91/158/170 1/124/418
s 2
f 93/161/180 91/158/179 31/128/419 36/129/420
