# This file uses centimeters as units for non-parametric coordinates.

mtllib House2.mtl
g default
v 0.052848 3.234562 2.966815
v 0.052848 3.234562 -2.512707
v 0.040660 -2.636831 -2.638653
v 0.052848 1.206623 -2.638653
v -2.605409 -2.636831 -2.515924
v -2.649597 1.206623 -2.512707
v -3.181419 1.206623 -2.512707
v 0.040660 -2.636831 2.966815
v 0.052848 1.206623 2.966815
v -3.181419 1.206623 2.966815
v -2.605409 -2.636831 2.966815
v -2.649597 1.206623 2.966815
v 2.774925 -2.636831 -2.515924
v 2.819113 1.206623 -2.512707
v 3.350935 1.206623 -2.512707
v 3.350935 1.206623 2.966815
v 2.774925 -2.636831 2.966815
v 2.819113 1.206623 2.966815
vt 0.296882 0.393020
vt 0.299725 0.784498
vt 0.298995 0.991055
vt 0.049931 0.393027
vt 0.050416 0.784504
vt 0.000589 0.784508
vt 0.296745 0.393018
vt 0.299173 0.784497
vt 0.299001 0.991051
vt 0.596585 0.500810
vt 0.982310 0.500811
vt 0.982310 0.969773
vt 0.596585 0.969774
vt 0.584260 0.090715
vt 0.584260 0.474490
vt 0.992078 0.474490
vt 0.992318 0.090715
vt 0.049938 0.393017
vt 0.050421 0.784499
vt 0.000592 0.784499
vt 0.480913 0.523204
vt 0.484443 0.983740
vt 0.545589 0.983375
vt 0.542060 0.522839
vt 0.049377 0.393027
vt 0.297556 0.393020
vt 0.298171 0.784498
vt 0.049850 0.784504
vt 0.001361 0.784508
vt 0.297541 0.991060
vt 0.596664 0.500810
vt 0.981045 0.500811
vt 0.981047 0.969772
vt 0.596664 0.969774
vt 0.584260 0.090715
vt 0.584260 0.474490
vt 0.992078 0.474490
vt 0.992318 0.090715
vt 0.000030 0.301143
vt 0.000142 0.046171
vt 0.391621 0.046192
vt 0.391512 0.300830
vt 0.391491 0.350659
vt 0.598175 0.046457
vt 0.480913 0.523204
vt 0.484443 0.983740
vt 0.545589 0.983375
vt 0.542060 0.522839
vn 0.046444 -0.000225 0.998921
vn 0.046444 -0.000225 0.998921
vn 0.046444 -0.000225 0.998921
vn 0.046444 -0.000225 0.998921
vn 0.038859 -0.051784 0.997902
vn 0.038859 -0.051784 0.997902
vn 0.038859 -0.051784 0.997902
vn 0.038859 -0.051784 0.997902
vn -0.531227 0.847230 0.000000
vn -0.531227 0.847230 0.000000
vn -0.531227 0.847230 0.000000
vn -0.531227 0.847230 0.000000
vn -0.999934 -0.011496 0.000000
vn -0.999934 -0.011496 0.000000
vn -0.999934 -0.011496 0.000000
vn -0.999934 -0.011496 0.000000
vn 0.000000 -0.000000 1.000000
vn 0.000000 -0.000000 1.000000
vn 0.000000 -0.000000 1.000000
vn 0.000000 -0.000000 1.000000
vn 0.000000 0.000000 1.000000
vn 0.000000 0.000000 1.000000
vn 0.000000 0.000000 1.000000
vn 0.000000 0.000000 1.000000
vn 0.000000 -1.000000 0.000000
vn 0.000000 -1.000000 0.000000
vn 0.000000 -1.000000 0.000000
vn 0.000000 -1.000000 0.000000
vn -0.045163 -0.000087 0.998980
vn -0.045163 -0.000087 0.998980
vn -0.045163 -0.000087 0.998980
vn -0.045163 -0.000087 0.998980
vn -0.038108 -0.051982 0.997921
vn -0.038108 -0.051982 0.997921
vn -0.038108 -0.051982 0.997921
vn -0.038108 -0.051982 0.997921
vn 0.523788 0.851849 0.000000
vn 0.523788 0.851849 0.000000
vn 0.523788 0.851849 0.000000
vn 0.523788 0.851849 0.000000
vn 0.999934 -0.011496 0.000000
vn 0.999934 -0.011496 0.000000
vn 0.999934 -0.011496 0.000000
vn 0.999934 -0.011496 0.000000
vn -0.000000 -0.000000 1.000000
vn -0.000000 -0.000000 1.000000
vn -0.000000 -0.000000 1.000000
vn -0.000000 -0.000000 1.000000
vn 0.000000 0.000000 1.000000
vn 0.000000 0.000000 1.000000
vn 0.000000 0.000000 1.000000
vn 0.000000 0.000000 1.000000
vn -0.000000 -1.000000 0.000000
vn -0.000000 -1.000000 0.000000
vn -0.000000 -1.000000 0.000000
vn -0.000000 -1.000000 0.000000
s off
g polySurface10
usemtl lambert2SG
f 5/4/1 3/1/2 4/2/3 6/5/4
f 7/6/5 6/5/6 4/2/7 2/3/8
f 10/10/9 1/11/10 2/12/11 7/13/12
f 11/14/13 12/15/14 6/16/15 5/17/16
f 11/18/17 8/7/18 9/8/19 12/19/20
f 10/20/21 12/19/22 9/8/23 1/9/24
f 10/21/25 7/22/26 6/23/27 12/24/28
f 13/25/29 14/28/30 4/27/31 3/26/32
f 15/29/33 2/30/34 4/27/35 14/28/36
f 16/31/37 15/34/38 2/33/39 1/32/40
f 17/35/41 13/38/42 14/37/43 18/36/44
f 17/39/45 18/42/46 9/41/47 8/40/48
f 16/43/49 1/44/50 9/41/51 18/42/52
f 16/45/53 18/48/54 14/47/55 15/46/56
