# This file uses centimeters as units for non-parametric coordinates.

mtllib Tree.mtl
g default
v 1.629121 2.645433 -2.821718
v -1.629119 2.645433 -2.821718
v -3.258240 2.645433 -0.000000
v -1.629120 2.645433 2.821718
v 1.629120 2.645433 2.821718
v 3.258240 2.645433 0.000000
v 0.000000 7.733883 0.000000
v 0.143790 0.000000 -0.249052
v -0.143790 0.000000 -0.249052
v -0.287581 0.000000 -0.000000
v -0.143790 0.000000 0.249052
v 0.143790 0.000000 0.249052
v 0.287581 0.000000 0.000000
v 0.143790 6.697021 -0.249052
v -0.143790 6.697021 -0.249052
v -0.287581 6.697021 -0.000000
v -0.143790 6.697021 0.249052
v 0.143790 6.697021 0.249052
v 0.287581 6.697021 0.000000
v 1.949729 5.895464 -1.134202
v -0.007465 5.910406 -2.255469
v -1.957194 5.895739 -1.121266
v -1.949729 5.866131 1.134202
v 0.007466 5.851190 2.255469
v 1.957194 5.865858 1.121266
v 0.000427 9.647635 0.049446
vt 0.296439 0.080195
vt 0.078355 0.080195
vt 0.714912 0.082475
vt 0.526050 0.082475
vt 0.187397 0.427745
vt 0.526050 0.460198
vt 0.337189 0.082475
vt 0.337189 0.082475
vt 0.526050 0.082475
vt 0.714912 0.082475
vt 0.296439 0.080195
vt 0.078355 0.080195
vt 0.933276 0.276256
vt 0.967365 0.276256
vt 0.967365 0.930602
vt 0.933276 0.930602
vt 0.762832 0.276256
vt 0.796921 0.276256
vt 0.796921 0.930602
vt 0.762832 0.930602
vt 0.831010 0.276256
vt 0.831010 0.930602
vt 0.865099 0.276256
vt 0.865099 0.930602
vt 0.899187 0.276256
vt 0.899187 0.930602
vt 0.652589 0.648643
vt 0.493605 0.649894
vt 0.494246 0.962905
vt 0.335226 0.648666
vt 0.252410 0.704730
vt 0.057588 0.702737
vt 0.151287 0.957221
vt 0.335833 0.646186
vt 0.494817 0.644935
vt 0.653196 0.646163
vt 0.058706 0.702719
vt 0.253527 0.704711
vn 0.000000 0.484960 -0.874536
vn 0.000000 0.484960 -0.874536
vn 0.000000 0.484960 -0.874536
vn -0.757371 0.484960 -0.437268
vn -0.757371 0.484960 -0.437268
vn -0.757371 0.484960 -0.437268
vn -0.757371 0.484960 0.437268
vn -0.757371 0.484960 0.437268
vn -0.757371 0.484960 0.437268
vn 0.000000 0.484960 0.874536
vn 0.000000 0.484960 0.874536
vn 0.000000 0.484960 0.874536
vn 0.757371 0.484960 0.437268
vn 0.757371 0.484960 0.437268
vn 0.757371 0.484960 0.437268
vn 0.757371 0.484960 -0.437268
vn 0.757371 0.484960 -0.437268
vn 0.757371 0.484960 -0.437268
vn 0.000000 0.000000 -1.000000
vn 0.000000 0.000000 -1.000000
vn 0.000000 0.000000 -1.000000
vn 0.000000 0.000000 -1.000000
vn -0.866025 0.000000 -0.500000
vn -0.866025 0.000000 -0.500000
vn -0.866025 0.000000 -0.500000
vn -0.866025 0.000000 -0.500000
vn -0.866026 0.000000 0.500000
vn -0.866026 0.000000 0.500000
vn -0.866026 0.000000 0.500000
vn -0.866026 0.000000 0.500000
vn -0.000000 0.000000 1.000000
vn -0.000000 0.000000 1.000000
vn -0.000000 0.000000 1.000000
vn -0.000000 0.000000 1.000000
vn 0.866025 0.000000 0.500000
vn 0.866025 0.000000 0.500000
vn 0.866025 0.000000 0.500000
vn 0.866025 0.000000 0.500000
vn 0.866026 0.000000 -0.500000
vn 0.866026 0.000000 -0.500000
vn 0.866026 0.000000 -0.500000
vn 0.866026 0.000000 -0.500000
vn 0.441376 0.470362 -0.764164
vn 0.441376 0.470362 -0.764164
vn 0.441376 0.470362 -0.764164
vn -0.446361 0.470424 -0.761225
vn -0.446361 0.470424 -0.761225
vn -0.446361 0.470424 -0.761225
vn -0.887685 0.460364 0.008981
vn -0.887685 0.460364 0.008981
vn -0.887685 0.460364 0.008981
vn -0.441272 0.450241 0.776249
vn -0.441272 0.450241 0.776249
vn -0.441272 0.450241 0.776249
vn 0.446465 0.450179 0.773309
vn 0.446465 0.450179 0.773309
vn 0.446465 0.450179 0.773309
vn 0.887789 0.460240 0.003103
vn 0.887789 0.460240 0.003103
vn 0.887789 0.460240 0.003103
s off
g pCone3
usemtl lambert2SG
f 1/1/1 2/2/2 7/5/3
f 2/3/4 3/4/5 7/6/6
f 3/4/7 4/7/8 7/6/9
f 4/12/10 5/11/11 7/5/12
f 5/8/13 6/9/14 7/6/15
f 6/9/16 1/10/17 7/6/18
usemtl lambert3SG
f 8/13/19 9/14/20 15/15/21 14/16/22
f 9/17/23 10/18/24 16/19/25 15/20/26
f 10/18/27 11/21/28 17/22/29 16/19/30
f 11/21/31 12/23/32 18/24/33 17/22/34
f 12/23/35 13/25/36 19/26/37 18/24/38
f 13/25/39 8/13/40 14/16/41 19/26/42
usemtl lambert2SG
f 20/27/43 21/28/44 26/29/45
f 21/28/46 22/30/47 26/29/48
f 22/31/49 23/32/50 26/33/51
f 23/34/52 24/35/53 26/29/54
f 24/35/55 25/36/56 26/29/57
f 25/37/58 20/38/59 26/33/60
