# This file uses centimeters as units for non-parametric coordinates.

mtllib Arrow.mtl
g default
v -0.045663 7.003782 9.745240
v -0.045663 6.003782 8.830792
v -0.045663 7.003782 6.388361
v -0.045663 6.003782 5.473913
v 0.042231 7.003782 9.745240
v 0.042231 6.003782 8.830792
v 0.042231 6.003782 5.473913
v 0.042231 7.003782 6.388361
v 0.000000 4.896230 -7.076070
v -0.380853 5.940023 -7.555686
v -0.000000 6.983816 -7.076070
v 0.380853 5.940023 -7.555686
v 0.000000 5.940023 -9.809785
v 0.109625 5.681587 7.982197
v -0.109625 5.681587 7.982197
v -0.219251 5.871464 7.982197
v -0.109625 6.061340 7.982197
v 0.109625 6.061340 7.982197
v 0.219251 5.871464 7.982197
v 0.109625 5.681587 -7.653736
v -0.109625 5.681587 -7.653736
v -0.219251 5.871464 -7.653736
v -0.109625 6.061340 -7.653736
v 0.109625 6.061340 -7.653736
v 0.219251 5.871464 -7.653736
v 0.044185 4.764608 9.745240
v 0.044185 5.764608 8.830792
v 0.044185 4.764608 6.388361
v 0.044185 5.764608 5.473913
v -0.043710 4.764608 9.745240
v -0.043710 5.764608 8.830792
v -0.043710 5.764608 5.473913
v -0.043710 4.764608 6.388361
vt 0.000000 0.000000
vt 1.000000 0.000000
vt 0.000000 1.000000
vt 1.000000 1.000000
vt 0.000000 0.000000
vt 1.000000 0.000000
vt 1.000000 1.000000
vt 0.000000 1.000000
vt 0.000000 0.000000
vt 1.000000 0.000000
vt 1.000000 1.000000
vt 0.000000 1.000000
vt 0.500000 0.000000
vt 0.750000 0.250000
vt 0.500000 0.500000
vt 0.250000 0.250000
vt 0.250000 0.500000
vt 0.375000 0.500000
vt 0.500000 1.000000
vt 0.500000 0.500000
vt 0.625000 0.500000
vt 0.750000 0.500000
vt 0.375000 0.312500
vt 0.416667 0.312500
vt 0.416667 0.688440
vt 0.375000 0.688440
vt 0.458333 0.312500
vt 0.458333 0.688440
vt 0.500000 0.312500
vt 0.500000 0.688440
vt 0.541667 0.312500
vt 0.541667 0.688440
vt 0.583333 0.312500
vt 0.583333 0.688440
vt 0.625000 0.312500
vt 0.625000 0.688440
vt 0.578125 0.020934
vt 0.656250 0.156250
vt 0.578125 0.291566
vt 0.421875 0.291566
vt 0.343750 0.156250
vt 0.421875 0.020934
vt 0.578125 0.979066
vt 0.421875 0.979066
vt 0.343750 0.843750
vt 0.421875 0.708434
vt 0.578125 0.708434
vt 0.656250 0.843750
vt 0.000000 0.000000
vt 1.000000 0.000000
vt 1.000000 1.000000
vt 0.000000 1.000000
vt 0.000000 0.000000
vt 0.000000 1.000000
vt 1.000000 1.000000
vt 1.000000 0.000000
vt 0.000000 0.000000
vt 1.000000 0.000000
vt 1.000000 1.000000
vt 0.000000 1.000000
vn 1.000000 0.000000 0.000000
vn 1.000000 0.000000 0.000000
vn 1.000000 0.000000 0.000000
vn 1.000000 0.000000 0.000000
vn -1.000000 -0.000000 0.000000
vn -1.000000 -0.000000 0.000000
vn -1.000000 -0.000000 0.000000
vn -1.000000 -0.000000 0.000000
vn 0.000000 -0.674834 0.737969
vn 0.000000 -0.674834 0.737969
vn 0.000000 -0.674834 0.737969
vn 0.000000 -0.674834 0.737969
vn 0.000000 -1.000000 0.000000
vn 0.000000 -1.000000 0.000000
vn 0.000000 -1.000000 0.000000
vn 0.000000 -1.000000 0.000000
vn 0.000000 0.674835 -0.737969
vn 0.000000 0.674835 -0.737969
vn 0.000000 0.674835 -0.737969
vn 0.000000 0.674835 -0.737969
vn 0.000000 1.000000 0.000000
vn 0.000000 1.000000 0.000000
vn 0.000000 1.000000 0.000000
vn 0.000000 1.000000 0.000000
vn 0.000000 0.000000 1.000000
vn 0.000000 0.000000 1.000000
vn 0.000000 0.000000 1.000000
vn 0.000000 0.000000 1.000000
vn -0.903743 -0.399915 -0.152696
vn -0.903743 -0.399915 -0.152696
vn -0.903743 -0.399915 -0.152696
vn -0.903743 0.399915 -0.152696
vn -0.903743 0.399915 -0.152696
vn -0.903743 0.399915 -0.152696
vn 0.903743 0.399915 -0.152697
vn 0.903743 0.399915 -0.152697
vn 0.903743 0.399915 -0.152697
vn 0.903743 -0.399915 -0.152697
vn 0.903743 -0.399915 -0.152697
vn 0.903743 -0.399915 -0.152697
vn 0.000000 -1.000000 0.000000
vn 0.000000 -1.000000 0.000000
vn 0.000000 -1.000000 0.000000
vn 0.000000 -1.000000 0.000000
vn -0.866025 -0.500000 0.000000
vn -0.866025 -0.500000 0.000000
vn -0.866025 -0.500000 0.000000
vn -0.866025 -0.500000 0.000000
vn -0.866025 0.500000 0.000000
vn -0.866025 0.500000 0.000000
vn -0.866025 0.500000 0.000000
vn -0.866025 0.500000 0.000000
vn 0.000000 1.000000 0.000000
vn 0.000000 1.000000 0.000000
vn 0.000000 1.000000 0.000000
vn 0.000000 1.000000 0.000000
vn 0.866025 0.500000 0.000000
vn 0.866025 0.500000 0.000000
vn 0.866025 0.500000 0.000000
vn 0.866025 0.500000 0.000000
vn 0.866025 -0.500000 0.000000
vn 0.866025 -0.500000 0.000000
vn 0.866025 -0.500000 0.000000
vn 0.866025 -0.500000 0.000000
vn 0.000000 0.000000 1.000000
vn 0.000000 0.000000 1.000000
vn 0.000000 0.000000 1.000000
vn 0.000000 0.000000 1.000000
vn 0.000000 0.000000 1.000000
vn 0.000000 0.000000 1.000000
vn 0.000000 0.000000 -1.000000
vn 0.000000 0.000000 -1.000000
vn 0.000000 0.000000 -1.000000
vn 0.000000 0.000000 -1.000000
vn 0.000000 0.000000 -1.000000
vn 0.000000 0.000000 -1.000000
vn -1.000000 0.000000 0.000000
vn -1.000000 0.000000 0.000000
vn -1.000000 0.000000 0.000000
vn -1.000000 0.000000 0.000000
vn 1.000000 0.000000 0.000000
vn 1.000000 0.000000 0.000000
vn 1.000000 0.000000 0.000000
vn 1.000000 0.000000 0.000000
vn 0.000000 0.674834 0.737969
vn 0.000000 0.674834 0.737969
vn 0.000000 0.674834 0.737969
vn 0.000000 0.674834 0.737969
vn 0.000000 1.000000 0.000000
vn 0.000000 1.000000 0.000000
vn 0.000000 1.000000 0.000000
vn 0.000000 1.000000 0.000000
vn 0.000000 -0.674835 -0.737969
vn 0.000000 -0.674835 -0.737969
vn 0.000000 -0.674835 -0.737969
vn 0.000000 -0.674835 -0.737969
vn 0.000000 -1.000000 0.000000
vn 0.000000 -1.000000 0.000000
vn 0.000000 -1.000000 0.000000
vn 0.000000 -1.000000 0.000000
s off
g pPlane3
usemtl lambert2SG
f 5/9/1 6/10/2 7/11/3 8/12/4
f 1/5/5 3/8/6 4/7/7 2/6/8
f 1/1/9 2/2/10 6/10/11 5/9/12
f 2/2/13 4/4/14 7/11/15 6/10/16
f 4/4/17 3/3/18 8/12/19 7/11/20
f 3/3/21 1/1/22 5/9/23 8/12/24
usemtl lambert3SG
f 9/13/25 12/14/26 11/15/27 10/16/28
f 9/17/29 10/18/30 13/19/31
f 10/18/32 11/20/33 13/19/34
f 11/20/35 12/21/36 13/19/37
f 12/21/38 9/22/39 13/19/40
usemtl lambert4SG
f 14/23/41 15/24/42 21/25/43 20/26/44
f 15/24/45 16/27/46 22/28/47 21/25/48
f 16/27/49 17/29/50 23/30/51 22/28/52
f 17/29/53 18/31/54 24/32/55 23/30/56
f 18/31/57 19/33/58 25/34/59 24/32/60
f 19/33/61 14/35/62 20/36/63 25/34/64
f 14/37/65 19/38/66 18/39/67 17/40/68 16/41/69 15/42/70
f 20/43/71 21/44/72 22/45/73 23/46/74 24/47/75 25/48/76
usemtl lambert2SG
f 30/49/77 31/50/78 32/51/79 33/52/80
f 26/53/81 28/54/82 29/55/83 27/56/84
f 26/57/85 27/58/86 31/50/87 30/49/88
f 27/58/89 29/59/90 32/51/91 31/50/92
f 29/59/93 28/60/94 33/52/95 32/51/96
f 28/60/97 26/57/98 30/49/99 33/52/100
