# This file uses centimeters as units for non-parametric coordinates.

mtllib Sword.mtl
g default
v -0.736639 -3.386398 0.399644
v 0.736639 -3.386398 0.399644
v -0.736639 -2.502248 0.399644
v 0.736639 -2.502248 0.399644
v -0.736639 -2.502248 -0.399644
v 0.736639 -2.502248 -0.399644
v -0.736639 -3.386398 -0.399644
v 0.736639 -3.386398 -0.399644
v -1.017907 -2.502248 0.000000
v 1.017907 -2.502248 0.000000
v 1.017907 -3.386398 0.000000
v -1.017907 -3.386398 0.000000
v -0.926765 -3.386398 -0.239786
v 0.926765 -3.386398 -0.239786
v 0.926765 -2.502248 -0.239786
v -0.926765 -2.502248 -0.239786
v -0.926765 -2.502248 0.239786
v 0.926765 -2.502248 0.239786
v 0.926765 -3.386398 0.239786
v -0.926765 -3.386398 0.239786
v -0.371648 -2.501500 0.113292
v -0.001744 -2.501500 0.182611
v 0.364214 -2.501500 0.101236
v -0.316126 3.755523 0.104313
v -0.001744 3.755523 0.174787
v 0.390277 3.755523 0.095950
v -0.501744 3.755523 0.000000
v -0.001744 4.341597 0.000000
v 0.498256 3.755523 0.000000
v -0.311543 3.755523 -0.113874
v -0.001744 3.755523 -0.199048
v 0.357799 3.755523 -0.119468
v -0.336103 -2.501500 -0.155929
v -0.001744 -2.501500 -0.242444
v 0.349669 -2.501500 -0.113643
v -0.501744 -2.501500 -0.000000
v 0.498256 -2.501500 -0.000000
v 0.266803 -5.072420 0.261983
v 0.226956 -5.150624 0.261983
v 0.164893 -5.212686 0.261983
v 0.086690 -5.252533 0.261983
v -0.000000 -5.266264 0.261983
v -0.086690 -5.252533 0.261983
v -0.164894 -5.212686 0.261983
v -0.226956 -5.150624 0.261983
v -0.266803 -5.072420 0.261983
v -0.280534 -4.985730 0.261983
v -0.266803 -4.899041 0.261983
v -0.226956 -4.820837 0.261983
v -0.164894 -4.758774 0.261983
v -0.086690 -4.718927 0.261983
v -0.000000 -4.705196 0.261983
v 0.086690 -4.718927 0.261983
v 0.164893 -4.758774 0.261983
v 0.226956 -4.820837 0.261983
v 0.266803 -4.899041 0.261983
v 0.280533 -4.985730 0.261983
v 0.377317 -5.108328 0.153466
v 0.320965 -5.218925 0.153466
v 0.233195 -5.306695 0.153466
v 0.122598 -5.363047 0.153466
v 0.000000 -5.382465 0.153466
v -0.122598 -5.363047 0.153466
v -0.233195 -5.306695 0.153466
v -0.320965 -5.218925 0.153466
v -0.377317 -5.108328 0.153466
v -0.396735 -4.985730 0.153466
v -0.377317 -4.863132 0.153466
v -0.320965 -4.752535 0.153466
v -0.233195 -4.664765 0.153466
v -0.122598 -4.608413 0.153466
v -0.000000 -4.588995 0.153466
v 0.122598 -4.608413 0.153466
v 0.233195 -4.664765 0.153466
v 0.320965 -4.752535 0.153466
v 0.377317 -4.863132 0.153466
v 0.396734 -4.985730 0.153466
v 0.377317 -5.108328 -0.153466
v 0.320965 -5.218925 -0.153466
v 0.233195 -5.306695 -0.153466
v 0.122598 -5.363047 -0.153466
v 0.000000 -5.382465 -0.153466
v -0.122598 -5.363047 -0.153466
v -0.233195 -5.306695 -0.153466
v -0.320965 -5.218925 -0.153466
v -0.377317 -5.108328 -0.153466
v -0.396735 -4.985730 -0.153466
v -0.377317 -4.863132 -0.153466
v -0.320965 -4.752535 -0.153466
v -0.233195 -4.664765 -0.153466
v -0.122598 -4.608413 -0.153466
v -0.000000 -4.588995 -0.153466
v 0.122598 -4.608413 -0.153466
v 0.233195 -4.664765 -0.153466
v 0.320965 -4.752535 -0.153466
v 0.377317 -4.863132 -0.153466
v 0.396734 -4.985730 -0.153466
v 0.266803 -5.072420 -0.261983
v 0.226956 -5.150624 -0.261983
v 0.164894 -5.212686 -0.261983
v 0.086690 -5.252533 -0.261983
v -0.000000 -5.266264 -0.261983
v -0.086690 -5.252533 -0.261983
v -0.164894 -5.212686 -0.261983
v -0.226956 -5.150624 -0.261983
v -0.266803 -5.072420 -0.261983
v -0.280534 -4.985730 -0.261983
v -0.266803 -4.899041 -0.261983
v -0.226956 -4.820837 -0.261983
v -0.164894 -4.758774 -0.261983
v -0.086690 -4.718927 -0.261983
v 0.000000 -4.705196 -0.261983
v 0.086690 -4.718927 -0.261983
v 0.164894 -4.758774 -0.261983
v 0.226956 -4.820837 -0.261983
v 0.266803 -4.899041 -0.261983
v 0.280534 -4.985730 -0.261983
v 0.000000 -4.985730 0.306933
v 0.000000 -4.985730 -0.306932
v 0.215326 -4.683091 -0.073216
v 0.183167 -4.683091 -0.139264
v 0.133079 -4.683091 -0.191681
v 0.069964 -4.683091 -0.225335
v -0.000000 -4.683091 -0.236931
v -0.069964 -4.683091 -0.225335
v -0.133079 -4.683091 -0.191681
v -0.183167 -4.683091 -0.139264
v -0.215326 -4.683091 -0.073216
v -0.226407 -4.683091 0.000000
v -0.215326 -4.683091 0.073216
v -0.183167 -4.683091 0.139264
v -0.133079 -4.683091 0.191681
v -0.069964 -4.683091 0.225334
v -0.000000 -4.683091 0.236931
v 0.069964 -4.683091 0.225334
v 0.133079 -4.683091 0.191681
v 0.183167 -4.683091 0.139264
v 0.215326 -4.683091 0.073216
v 0.226407 -4.683091 0.000000
v 0.215326 -3.377144 -0.073216
v 0.183167 -3.377144 -0.139264
v 0.133079 -3.377144 -0.191681
v 0.069964 -3.377144 -0.225335
v -0.000000 -3.377144 -0.236931
v -0.069964 -3.377144 -0.225335
v -0.133079 -3.377144 -0.191681
v -0.183167 -3.377144 -0.139264
v -0.215326 -3.377144 -0.073216
v -0.226407 -3.377144 0.000000
v -0.215326 -3.377144 0.073216
v -0.183167 -3.377144 0.139264
v -0.133079 -3.377144 0.191681
v -0.069964 -3.377144 0.225334
v -0.000000 -3.377144 0.236931
v 0.069964 -3.377144 0.225334
v 0.133079 -3.377144 0.191681
v 0.183167 -3.377144 0.139264
v 0.215326 -3.377144 0.073216
v 0.226407 -3.377144 0.000000
vt 0.121385 0.358145
vt 0.121385 0.184352
vt 0.173523 0.184352
vt 0.173523 0.358145
vt 0.069247 0.358145
vt 0.069247 0.184352
vt 0.208281 0.184352
vt 0.208281 0.358145
vt 0.034489 0.184352
vt 0.034489 0.358145
vt 0.083891 0.545951
vt 0.083891 0.372158
vt 0.136029 0.372158
vt 0.136029 0.545951
vt 0.049133 0.372158
vt 0.049133 0.545951
vt 0.188167 0.372158
vt 0.188167 0.545951
vt 0.222925 0.372158
vt 0.222925 0.545951
vt 0.224317 0.475622
vt 0.546518 0.475622
vt 0.532093 0.526252
vt 0.238742 0.526252
vt 0.238742 0.424993
vt 0.532093 0.424993
vt 0.502002 0.560004
vt 0.268833 0.560004
vt 0.268833 0.391240
vt 0.502002 0.391240
vt 0.231436 0.221519
vt 0.547987 0.221519
vt 0.563553 0.273657
vt 0.215871 0.273657
vt 0.263906 0.186760
vt 0.515517 0.186760
vt 0.547987 0.325794
vt 0.231436 0.325794
vt 0.515517 0.360553
vt 0.263906 0.360553
vt 0.023564 0.020213
vt 0.238999 0.020213
vt 0.238999 0.175568
vt 0.023564 0.175568
vt 0.251890 0.025973
vt 0.445578 0.025973
vt 0.445578 0.174624
vt 0.251890 0.174624
vt 0.023023 0.585989
vt 0.056639 0.586575
vt 0.050556 0.982306
vt 0.021985 0.981809
vt 0.089897 0.587155
vt 0.086182 0.982927
vt 0.231012 0.942996
vt 0.219367 0.896833
vt 0.248247 0.896833
vt 0.232394 0.839270
vt 0.248247 0.823414
vt 0.248247 0.970251
vt 0.267063 0.942323
vt 0.267987 0.844038
vt 0.281136 0.896833
vt 0.134494 0.582094
vt 0.159064 0.581981
vt 0.160167 0.986604
vt 0.133649 0.986726
vt 0.187580 0.581850
vt 0.188038 0.986476
vt 0.199823 0.986422
vt 0.198720 0.581799
vt 0.102079 0.587367
vt 0.095995 0.983098
vt 0.120511 0.986787
vt 0.119409 0.582164
vt 0.011200 0.585783
vt 0.005117 0.981515
vt 0.723097 0.766144
vt 0.714443 0.729321
vt 0.758547 0.697162
vt 0.764956 0.749236
vt 0.698115 0.700099
vt 0.743945 0.655835
vt 0.672119 0.681338
vt 0.710167 0.629302
vt 0.637820 0.674873
vt 0.637820 0.620160
vt 0.603521 0.681338
vt 0.565472 0.629302
vt 0.577524 0.700099
vt 0.531695 0.655836
vt 0.561197 0.729321
vt 0.517093 0.697162
vt 0.552542 0.766144
vt 0.510684 0.749236
vt 0.549852 0.806961
vt 0.508838 0.806961
vt 0.552542 0.847779
vt 0.510684 0.864686
vt 0.561197 0.884601
vt 0.517093 0.916760
vt 0.577524 0.913823
vt 0.531695 0.958087
vt 0.603521 0.932585
vt 0.565472 0.984620
vt 0.637820 0.939050
vt 0.637820 0.993763
vt 0.672119 0.932585
vt 0.710167 0.984620
vt 0.698115 0.913823
vt 0.743945 0.958087
vt 0.714443 0.884601
vt 0.758547 0.916760
vt 0.723097 0.847779
vt 0.764956 0.864686
vt 0.725788 0.806961
vt 0.766802 0.806961
vt 0.854289 0.697162
vt 0.847880 0.749236
vt 0.868891 0.655835
vt 0.902669 0.629302
vt 0.975016 0.620160
vt 0.372970 0.629302
vt 0.406748 0.655836
vt 0.421350 0.697162
vt 0.427759 0.749236
vt 0.429605 0.806961
vt 0.427759 0.864686
vt 0.421350 0.916760
vt 0.406748 0.958087
vt 0.372970 0.984620
vt 0.868891 0.958087
vt 0.902669 0.984620
vt 0.854289 0.916760
vt 0.847880 0.864686
vt 0.846034 0.806961
vt 0.898393 0.729321
vt 0.889739 0.766144
vt 0.914721 0.700099
vt 0.940717 0.681338
vt 0.975016 0.674873
vt 0.300623 0.620160
vt 0.334922 0.681338
vt 0.300623 0.674873
vt 0.360919 0.700099
vt 0.377246 0.729321
vt 0.385901 0.766144
vt 0.388591 0.806961
vt 0.385901 0.847779
vt 0.377246 0.884601
vt 0.360919 0.913823
vt 0.334922 0.932585
vt 0.300623 0.993763
vt 0.300623 0.939050
vt 0.975016 0.993763
vt 0.940717 0.932585
vt 0.975016 0.939050
vt 0.914721 0.913823
vt 0.898393 0.884601
vt 0.889739 0.847779
vt 0.887048 0.806961
vt 0.637820 0.806961
vt 0.975016 0.806961
vt 0.300623 0.806961
vt 0.904375 0.034679
vt 0.923674 0.034679
vt 0.923674 0.500217
vt 0.904375 0.500217
vt 0.942467 0.034679
vt 0.942467 0.500217
vt 0.960778 0.034679
vt 0.960778 0.500217
vt 0.978804 0.034679
vt 0.978804 0.500217
vt 0.602588 0.034679
vt 0.620614 0.034679
vt 0.620614 0.500217
vt 0.602588 0.500217
vt 0.638925 0.034679
vt 0.638925 0.500217
vt 0.657718 0.034679
vt 0.657718 0.500217
vt 0.677017 0.034679
vt 0.677017 0.500217
vt 0.696642 0.034679
vt 0.696642 0.500217
vt 0.716267 0.034679
vt 0.716267 0.500217
vt 0.735566 0.034679
vt 0.735566 0.500217
vt 0.754359 0.034679
vt 0.754359 0.500217
vt 0.772670 0.034679
vt 0.772670 0.500217
vt 0.790696 0.034679
vt 0.790696 0.500217
vt 0.808722 0.034679
vt 0.808722 0.500217
vt 0.827033 0.034679
vt 0.827033 0.500217
vt 0.845826 0.034679
vt 0.845826 0.500217
vt 0.865125 0.034679
vt 0.865125 0.500217
vt 0.884750 0.034679
vt 0.884750 0.500217
vn 0.000000 0.000000 1.000000
vn 0.000000 0.000000 1.000000
vn 0.000000 0.000000 1.000000
vn 0.000000 0.000000 1.000000
vn 0.000000 1.000000 0.000000
vn 0.000000 1.000000 0.000000
vn 0.000000 1.000000 -0.000000
vn 0.000000 1.000000 -0.000000
vn 0.000000 0.000000 -1.000000
vn 0.000000 0.000000 -1.000000
vn 0.000000 0.000000 -1.000000
vn 0.000000 0.000000 -1.000000
vn 0.000000 -1.000000 0.000000
vn 0.000000 -1.000000 0.000000
vn 0.000000 -1.000000 0.000000
vn 0.000000 -1.000000 0.000000
vn 1.000000 0.000000 0.000000
vn 1.000000 0.000000 0.000000
vn 0.817771 0.000000 -0.575544
vn 0.817771 0.000000 -0.575544
vn -0.817771 0.000000 -0.575544
vn -0.817771 0.000000 -0.575544
vn -1.000000 0.000000 0.000000
vn -1.000000 0.000000 0.000000
vn 0.000000 1.000000 0.000000
vn 0.000000 1.000000 0.000000
vn 0.817771 0.000000 0.575544
vn 0.817771 0.000000 0.575544
vn 0.000000 -1.000000 -0.000000
vn 0.000000 -1.000000 -0.000000
vn -0.817771 0.000000 0.575544
vn -0.817771 0.000000 0.575544
vn 0.000000 -1.000000 -0.000002
vn 0.000000 -1.000000 -0.000002
vn 0.643550 0.000000 -0.765404
vn 0.643550 0.000000 -0.765404
vn 0.000000 1.000000 -0.000000
vn 0.000000 1.000000 -0.000000
vn -0.643550 0.000000 -0.765404
vn -0.643550 0.000000 -0.765404
vn 0.000000 1.000000 -0.000001
vn 0.000000 1.000000 -0.000001
vn 0.643550 0.000000 0.765404
vn 0.643550 0.000000 0.765404
vn 0.000000 -1.000000 0.000002
vn 0.000000 -1.000000 0.000002
vn -0.643550 0.000000 0.765404
vn -0.643550 0.000000 0.765404
vn -0.200156 0.002204 0.979762
vn 0.014153 0.001386 0.999899
vn 0.014154 0.001386 0.999899
vn -0.200156 0.002204 0.979762
vn 0.206798 0.000594 0.978383
vn 0.206798 0.000594 0.978383
vn -0.343531 0.340086 0.875402
vn 0.011755 0.285774 0.958225
vn -0.001718 0.998103 0.061538
vn 0.366484 0.383894 0.847535
vn 0.756169 0.645114 -0.109709
vn -0.760556 0.648856 -0.023237
vn -0.372820 0.362995 -0.853955
vn 0.390581 0.407844 -0.825294
vn -0.006679 0.321580 -0.946859
vn -0.257536 0.007103 -0.966243
vn 0.027036 0.004968 -0.999622
vn 0.027008 0.004968 -0.999623
vn -0.257536 0.007103 -0.966243
vn 0.281266 0.002698 -0.959626
vn 0.281266 0.002698 -0.959626
vn 0.994081 -0.001373 -0.108633
vn 0.627770 -0.000770 -0.778399
vn 0.627770 -0.000770 -0.778399
vn 0.994081 -0.001373 -0.108633
vn 0.631642 -0.000988 0.775260
vn 0.631642 -0.000988 0.775260
vn -0.604173 0.003864 -0.796844
vn -0.996610 0.005965 -0.082053
vn -0.996610 0.005965 -0.082053
vn -0.604173 0.003864 -0.796844
vn -0.567504 0.003109 0.823365
vn -0.567504 0.003109 0.823365
vn 0.477585 -0.155175 0.864773
vn 0.406259 -0.295165 0.864773
vn 0.787723 -0.572314 0.227924
vn 0.926024 -0.300882 0.227924
vn 0.295163 -0.406259 0.864773
vn 0.572313 -0.787723 0.227924
vn 0.155178 -0.477585 0.864773
vn 0.300883 -0.926024 0.227924
vn -0.000000 -0.502164 0.864772
vn -0.000000 -0.973679 0.227924
vn -0.155179 -0.477585 0.864773
vn -0.300886 -0.926023 0.227924
vn -0.295163 -0.406259 0.864773
vn -0.572314 -0.787723 0.227924
vn -0.406258 -0.295165 0.864773
vn -0.787722 -0.572315 0.227924
vn -0.477585 -0.155177 0.864773
vn -0.926024 -0.300883 0.227924
vn -0.502164 -0.000000 0.864772
vn -0.973679 -0.000000 0.227924
vn -0.477585 0.155177 0.864773
vn -0.926024 0.300883 0.227924
vn -0.406259 0.295165 0.864772
vn -0.787723 0.572315 0.227924
vn -0.295164 0.406260 0.864772
vn -0.572314 0.787723 0.227924
vn -0.155178 0.477585 0.864773
vn -0.376936 0.854663 0.357030
vn -0.000000 0.502164 0.864773
vn -0.000000 0.682528 0.730860
vn 0.155178 0.477585 0.864773
vn 0.376936 0.854663 0.357029
vn 0.295164 0.406260 0.864772
vn 0.572314 0.787723 0.227924
vn 0.406259 0.295165 0.864772
vn 0.787723 0.572314 0.227923
vn 0.477585 0.155175 0.864774
vn 0.926024 0.300883 0.227924
vn 0.502163 0.000000 0.864773
vn 0.973679 0.000001 0.227924
vn 0.787723 -0.572314 -0.227925
vn 0.926024 -0.300882 -0.227924
vn 0.572313 -0.787723 -0.227924
vn 0.300883 -0.926024 -0.227924
vn 0.000000 -0.973679 -0.227924
vn -0.300886 -0.926023 -0.227923
vn -0.572314 -0.787723 -0.227924
vn -0.787722 -0.572315 -0.227924
vn -0.926024 -0.300883 -0.227923
vn -0.973679 -0.000000 -0.227924
vn -0.926024 0.300883 -0.227924
vn -0.787723 0.572315 -0.227924
vn -0.572314 0.787723 -0.227925
vn -0.376936 0.854663 -0.357030
vn 0.572314 0.787723 -0.227924
vn 0.376936 0.854664 -0.357029
vn 0.787723 0.572314 -0.227924
vn 0.926024 0.300883 -0.227924
vn 0.973679 0.000001 -0.227924
vn 0.406258 -0.295164 -0.864773
vn 0.477584 -0.155176 -0.864774
vn 0.295163 -0.406258 -0.864773
vn 0.155178 -0.477585 -0.864773
vn 0.000000 -0.502164 -0.864772
vn -0.155179 -0.477585 -0.864773
vn -0.295164 -0.406259 -0.864773
vn -0.406258 -0.295165 -0.864773
vn -0.477585 -0.155177 -0.864773
vn -0.502164 0.000000 -0.864773
vn -0.477585 0.155176 -0.864773
vn -0.406259 0.295164 -0.864773
vn -0.295164 0.406259 -0.864773
vn -0.155177 0.477584 -0.864773
vn 0.000000 0.682528 -0.730860
vn 0.000000 0.502163 -0.864773
vn 0.155178 0.477585 -0.864773
vn 0.295164 0.406259 -0.864772
vn 0.406259 0.295164 -0.864773
vn 0.477585 0.155177 -0.864773
vn 0.502163 0.000000 -0.864773
vn 0.000000 -0.000000 1.000000
vn 0.000000 -0.000000 -1.000000
vn 0.955026 0.000000 -0.296523
vn 0.821436 0.000000 -0.570300
vn 0.821436 0.000000 -0.570300
vn 0.955026 0.000000 -0.296523
vn 0.605241 0.000000 -0.796042
vn 0.605241 0.000000 -0.796042
vn 0.321921 0.000000 -0.946766
vn 0.321921 0.000000 -0.946766
vn 0.000000 0.000000 -1.000000
vn 0.000000 0.000000 -1.000000
vn -0.321922 0.000000 -0.946766
vn -0.321922 0.000000 -0.946766
vn -0.605242 0.000000 -0.796042
vn -0.605242 0.000000 -0.796042
vn -0.821437 0.000000 -0.570300
vn -0.821437 0.000000 -0.570300
vn -0.955026 0.000000 -0.296524
vn -0.955026 0.000000 -0.296524
vn -1.000000 0.000000 0.000000
vn -1.000000 0.000000 0.000000
vn -0.955026 0.000000 0.296524
vn -0.955026 0.000000 0.296524
vn -0.821436 0.000000 0.570300
vn -0.821436 0.000000 0.570300
vn -0.605241 0.000000 0.796042
vn -0.605241 0.000000 0.796042
vn -0.321922 0.000000 0.946766
vn -0.321922 0.000000 0.946766
vn 0.000000 0.000000 1.000000
vn 0.000000 0.000000 1.000000
vn 0.321922 0.000000 0.946766
vn 0.321922 0.000000 0.946766
vn 0.605241 0.000000 0.796042
vn 0.605241 0.000000 0.796042
vn 0.821436 0.000000 0.570300
vn 0.821436 0.000000 0.570300
vn 0.955025 0.000000 0.296524
vn 0.955025 0.000000 0.296524
vn 1.000000 0.000000 0.000001
vn 1.000000 0.000000 0.000001
s off
g pCube3
usemtl lambert5SG
f 1/41/1 2/42/2 4/43/3 3/44/4
s 1
f 9/21/5 10/22/6 15/23/7 16/24/8
s off
f 5/45/9 6/46/10 8/47/11 7/48/12
s 2
f 13/31/13 14/32/14 11/33/15 12/34/16
s 3
f 10/1/17 11/2/18 14/3/19 15/4/20
s 4
f 16/11/21 13/12/22 12/13/23 9/14/24
s 1
f 17/25/25 18/26/26 10/22/6 9/21/5
s 3
f 18/5/27 19/6/28 11/2/18 10/1/17
s 2
f 12/34/16 11/33/15 19/37/29 20/38/30
s 4
f 9/14/24 12/13/23 20/17/31 17/18/32
s 2
f 7/35/33 8/36/34 14/32/14 13/31/13
s 3
f 15/4/20 14/3/19 8/7/35 6/8/36
s 1
f 16/24/8 15/23/7 6/27/37 5/28/38
s 4
f 7/15/39 13/12/22 16/11/21 5/16/40
s 1
f 3/29/41 4/30/42 18/26/26 17/25/25
s 3
f 2/9/43 19/6/28 18/5/27 4/10/44
s 2
f 20/38/30 19/37/29 2/39/45 1/40/46
s 4
f 17/18/32 20/17/31 1/19/47 3/20/48
s 5
usemtl lambert6SG
f 21/49/49 22/50/50 25/51/51 24/52/52
f 22/50/50 23/53/53 26/54/54 25/51/51
s 6
f 24/55/55 25/56/56 28/57/57
f 28/57/57 26/58/58 29/59/59
f 27/60/60 28/57/57 30/61/61
f 28/57/57 32/62/62 31/63/63
s 7
f 30/64/64 31/65/65 34/66/66 33/67/67
f 31/65/65 32/68/68 35/69/69 34/66/66
s 8
f 37/70/70 35/69/71 32/68/72 29/71/73
f 23/53/74 37/72/70 29/73/73 26/54/75
s 9
f 33/67/76 36/74/77 27/75/78 30/64/79
f 36/76/77 21/49/80 24/52/81 27/77/78
s 6
f 24/55/55 28/57/57 27/60/60
f 25/56/56 26/58/58 28/57/57
f 28/57/57 29/59/59 32/62/62
f 30/61/61 28/57/57 31/63/63
s 10
usemtl lambert3SG
f 38/78/82 39/79/83 59/80/84 58/81/85
f 39/79/83 40/82/86 60/83/87 59/80/84
f 40/82/86 41/84/88 61/85/89 60/83/87
f 41/84/88 42/86/90 62/87/91 61/85/89
f 42/86/90 43/88/92 63/89/93 62/87/91
f 43/88/92 44/90/94 64/91/95 63/89/93
f 44/90/94 45/92/96 65/93/97 64/91/95
f 45/92/96 46/94/98 66/95/99 65/93/97
f 46/94/98 47/96/100 67/97/101 66/95/99
f 47/96/100 48/98/102 68/99/103 67/97/101
f 48/98/102 49/100/104 69/101/105 68/99/103
f 49/100/104 50/102/106 70/103/107 69/101/105
f 50/102/106 51/104/108 71/105/109 70/103/107
f 51/104/108 52/106/110 72/107/111 71/105/109
f 52/106/110 53/108/112 73/109/113 72/107/111
f 53/108/112 54/110/114 74/111/115 73/109/113
f 54/110/114 55/112/116 75/113/117 74/111/115
f 55/112/116 56/114/118 76/115/119 75/113/117
f 56/114/118 57/116/120 77/117/121 76/115/119
f 57/116/120 38/78/82 58/81/85 77/117/121
f 58/81/85 59/80/84 79/118/122 78/119/123
f 59/80/84 60/83/87 80/120/124 79/118/122
f 60/83/87 61/85/89 81/121/125 80/120/124
f 61/85/89 62/87/91 82/122/126 81/121/125
f 62/87/91 63/89/93 83/123/127 82/122/126
f 63/89/93 64/91/95 84/124/128 83/123/127
f 64/91/95 65/93/97 85/125/129 84/124/128
f 65/93/97 66/95/99 86/126/130 85/125/129
f 66/95/99 67/97/101 87/127/131 86/126/130
f 67/97/101 68/99/103 88/128/132 87/127/131
f 68/99/103 69/101/105 89/129/133 88/128/132
f 69/101/105 70/103/107 90/130/134 89/129/133
f 70/103/107 71/105/109 91/131/135 90/130/134
f 73/109/113 74/111/115 94/132/136 93/133/137
f 74/111/115 75/113/117 95/134/138 94/132/136
f 75/113/117 76/115/119 96/135/139 95/134/138
f 76/115/119 77/117/121 97/136/140 96/135/139
f 77/117/121 58/81/85 78/119/123 97/136/140
f 78/119/123 79/118/122 99/137/141 98/138/142
f 79/118/122 80/120/124 100/139/143 99/137/141
f 80/120/124 81/121/125 101/140/144 100/139/143
f 81/121/125 82/122/126 102/141/145 101/140/144
f 82/142/126 83/123/127 103/143/146 102/144/145
f 83/123/127 84/124/128 104/145/147 103/143/146
f 84/124/128 85/125/129 105/146/148 104/145/147
f 85/125/129 86/126/130 106/147/149 105/146/148
f 86/126/130 87/127/131 107/148/150 106/147/149
f 87/127/131 88/128/132 108/149/151 107/148/150
f 88/128/132 89/129/133 109/150/152 108/149/151
f 89/129/133 90/130/134 110/151/153 109/150/152
f 90/130/134 91/131/135 111/152/154 110/151/153
f 91/131/135 92/153/155 112/154/156 111/152/154
f 92/155/155 93/133/137 113/156/157 112/157/156
f 93/133/137 94/132/136 114/158/158 113/156/157
f 94/132/136 95/134/138 115/159/159 114/158/158
f 95/134/138 96/135/139 116/160/160 115/159/159
f 96/135/139 97/136/140 117/161/161 116/160/160
f 97/136/140 78/119/123 98/138/142 117/161/161
usemtl lambert2SG
f 39/79/83 38/78/82 118/162/162
f 40/82/86 39/79/83 118/162/162
f 41/84/88 40/82/86 118/162/162
f 42/86/90 41/84/88 118/162/162
f 43/88/92 42/86/90 118/162/162
f 44/90/94 43/88/92 118/162/162
f 45/92/96 44/90/94 118/162/162
f 46/94/98 45/92/96 118/162/162
f 47/96/100 46/94/98 118/162/162
f 48/98/102 47/96/100 118/162/162
f 49/100/104 48/98/102 118/162/162
f 50/102/106 49/100/104 118/162/162
f 51/104/108 50/102/106 118/162/162
f 52/106/110 51/104/108 118/162/162
f 53/108/112 52/106/110 118/162/162
f 54/110/114 53/108/112 118/162/162
f 55/112/116 54/110/114 118/162/162
f 56/114/118 55/112/116 118/162/162
f 57/116/120 56/114/118 118/162/162
f 38/78/82 57/116/120 118/162/162
f 98/138/142 99/137/141 119/163/163
f 99/137/141 100/139/143 119/163/163
f 100/139/143 101/140/144 119/163/163
f 101/140/144 102/141/145 119/163/163
f 102/144/145 103/143/146 119/164/163
f 103/143/146 104/145/147 119/164/163
f 104/145/147 105/146/148 119/164/163
f 105/146/148 106/147/149 119/164/163
f 106/147/149 107/148/150 119/164/163
f 107/148/150 108/149/151 119/164/163
f 108/149/151 109/150/152 119/164/163
f 109/150/152 110/151/153 119/164/163
f 110/151/153 111/152/154 119/164/163
f 111/152/154 112/154/156 119/164/163
f 112/157/156 113/156/157 119/163/163
f 113/156/157 114/158/158 119/163/163
f 114/158/158 115/159/159 119/163/163
f 115/159/159 116/160/160 119/163/163
f 116/160/160 117/161/161 119/163/163
f 117/161/161 98/138/142 119/163/163
s 11
usemtl lambert4SG
f 120/165/164 121/166/165 141/167/166 140/168/167
f 121/166/165 122/169/168 142/170/169 141/167/166
f 122/169/168 123/171/170 143/172/171 142/170/169
f 123/171/170 124/173/172 144/174/173 143/172/171
f 124/175/172 125/176/174 145/177/175 144/178/173
f 125/176/174 126/179/176 146/180/177 145/177/175
f 126/179/176 127/181/178 147/182/179 146/180/177
f 127/181/178 128/183/180 148/184/181 147/182/179
f 128/183/180 129/185/182 149/186/183 148/184/181
f 129/185/182 130/187/184 150/188/185 149/186/183
f 130/187/184 131/189/186 151/190/187 150/188/185
f 131/189/186 132/191/188 152/192/189 151/190/187
f 132/191/188 133/193/190 153/194/191 152/192/189
f 133/193/190 134/195/192 154/196/193 153/194/191
f 134/195/192 135/197/194 155/198/195 154/196/193
f 135/197/194 136/199/196 156/200/197 155/198/195
f 136/199/196 137/201/198 157/202/199 156/200/197
f 137/201/198 138/203/200 158/204/201 157/202/199
f 138/203/200 139/205/202 159/206/203 158/204/201
f 139/205/202 120/165/164 140/168/167 159/206/203
